<mxfile host="app.diagrams.net" modified="2020-07-21T07:48:51.649Z" agent="5.0 (Windows NT 10.0; Win64; x64) AppleWebKit/537.36 (KHTML, like Gecko) Chrome/77.0.3865.120 Safari/537.36" etag="JslPSoGkOGmpMuAO56GV" version="13.0.9" type="github">
  <diagram id="A91LpBzX5Wgsc4IaKshx" name="Page-1">
    <mxGraphModel dx="925" dy="512" grid="1" gridSize="10" guides="1" tooltips="1" connect="1" arrows="1" fold="1" page="1" pageScale="1" pageWidth="827" pageHeight="1169" math="0" shadow="0">
      <root>
        <mxCell id="0" />
        <mxCell id="1" parent="0" />
        <mxCell id="TyoJxL2L62WcN0cPFRU_-1" value="" style="shape=curlyBracket;whiteSpace=wrap;html=1;rounded=1;" parent="1" vertex="1">
          <mxGeometry x="222" y="72" width="20" height="120" as="geometry" />
        </mxCell>
        <mxCell id="TyoJxL2L62WcN0cPFRU_-4" value="1. 品牌词的&amp;nbsp; &amp;nbsp; （数量3.8 k 左右）" style="text;html=1;align=center;verticalAlign=middle;resizable=0;points=[];autosize=1;" parent="1" vertex="1">
          <mxGeometry x="242" y="72" width="190" height="20" as="geometry" />
        </mxCell>
        <mxCell id="TyoJxL2L62WcN0cPFRU_-7" value="标签词的来源，&lt;br&gt;按在线读取方式的不同&lt;br&gt;分为3类" style="text;html=1;align=center;verticalAlign=middle;resizable=0;points=[];autosize=1;" parent="1" vertex="1">
          <mxGeometry x="74" y="107" width="140" height="50" as="geometry" />
        </mxCell>
        <mxCell id="TyoJxL2L62WcN0cPFRU_-9" value="2. 非品牌词的&amp;nbsp; （数量1.8k 左右）&amp;nbsp;" style="text;html=1;align=center;verticalAlign=middle;resizable=0;points=[];autosize=1;" parent="1" vertex="1">
          <mxGeometry x="242" y="122" width="200" height="20" as="geometry" />
        </mxCell>
        <mxCell id="TyoJxL2L62WcN0cPFRU_-16" value="" style="shape=curlyBracket;whiteSpace=wrap;html=1;rounded=1;rotation=-180;" parent="1" vertex="1">
          <mxGeometry x="450" y="72" width="20" height="60" as="geometry" />
        </mxCell>
        <mxCell id="TyoJxL2L62WcN0cPFRU_-21" value="写入 redis" style="text;html=1;align=center;verticalAlign=middle;resizable=0;points=[];autosize=1;" parent="1" vertex="1">
          <mxGeometry x="475" y="94" width="70" height="20" as="geometry" />
        </mxCell>
        <mxCell id="TyoJxL2L62WcN0cPFRU_-23" value="" style="endArrow=classic;html=1;" parent="1" edge="1">
          <mxGeometry width="50" height="50" relative="1" as="geometry">
            <mxPoint x="480" y="182" as="sourcePoint" />
            <mxPoint x="590" y="182" as="targetPoint" />
          </mxGeometry>
        </mxCell>
        <mxCell id="TyoJxL2L62WcN0cPFRU_-24" value="写入elastic search" style="text;html=1;align=center;verticalAlign=middle;resizable=0;points=[];autosize=1;" parent="1" vertex="1">
          <mxGeometry x="600" y="172" width="110" height="20" as="geometry" />
        </mxCell>
        <mxCell id="TyoJxL2L62WcN0cPFRU_-28" value="" style="edgeStyle=orthogonalEdgeStyle;rounded=0;orthogonalLoop=1;jettySize=auto;html=1;" parent="1" source="TyoJxL2L62WcN0cPFRU_-26" edge="1">
          <mxGeometry relative="1" as="geometry">
            <mxPoint x="215" y="345" as="targetPoint" />
          </mxGeometry>
        </mxCell>
        <mxCell id="TyoJxL2L62WcN0cPFRU_-26" value="品牌词的" style="text;html=1;align=center;verticalAlign=middle;resizable=0;points=[];autosize=1;" parent="1" vertex="1">
          <mxGeometry x="10" y="335" width="60" height="20" as="geometry" />
        </mxCell>
        <mxCell id="TyoJxL2L62WcN0cPFRU_-29" value="&lt;div style=&quot;color: rgb(212 , 212 , 212) ; background-color: rgb(30 , 30 , 30) ; font-family: &amp;#34;consolas&amp;#34; , &amp;#34;courier new&amp;#34; , monospace ; font-size: 14px ; line-height: 19px&quot;&gt;&lt;span style=&quot;color: #ce9178&quot;&gt;secoo_app.app_search_brand_category_p_day_incr&lt;/span&gt;&lt;/div&gt;" style="text;html=1;align=center;verticalAlign=middle;resizable=0;points=[];autosize=1;" parent="1" vertex="1">
          <mxGeometry x="110" y="270" width="370" height="20" as="geometry" />
        </mxCell>
        <mxCell id="TyoJxL2L62WcN0cPFRU_-32" value="" style="edgeStyle=orthogonalEdgeStyle;rounded=0;orthogonalLoop=1;jettySize=auto;html=1;" parent="1" source="TyoJxL2L62WcN0cPFRU_-30" edge="1">
          <mxGeometry relative="1" as="geometry">
            <mxPoint x="360" y="345" as="targetPoint" />
          </mxGeometry>
        </mxCell>
        <mxCell id="TyoJxL2L62WcN0cPFRU_-30" value="&lt;span style=&quot;color: rgb(0 , 0 , 0) ; font-family: &amp;#34;helvetica&amp;#34; ; font-size: 12px ; font-style: normal ; font-weight: 400 ; letter-spacing: normal ; text-align: center ; text-indent: 0px ; text-transform: none ; word-spacing: 0px ; background-color: rgb(248 , 249 , 250) ; float: none ; display: inline&quot;&gt;根据过去一月搜索&lt;/span&gt;&lt;br style=&quot;color: rgb(0 , 0 , 0) ; font-family: &amp;#34;helvetica&amp;#34; ; font-size: 12px ; font-style: normal ; font-weight: 400 ; letter-spacing: normal ; text-align: center ; text-indent: 0px ; text-transform: none ; word-spacing: 0px ; background-color: rgb(248 , 249 , 250)&quot;&gt;&lt;span style=&quot;color: rgb(0 , 0 , 0) ; font-family: &amp;#34;helvetica&amp;#34; ; font-size: 12px ; font-style: normal ; font-weight: 400 ; letter-spacing: normal ; text-align: center ; text-indent: 0px ; text-transform: none ; word-spacing: 0px ; background-color: rgb(248 , 249 , 250) ; float: none ; display: inline&quot;&gt;各个品牌下的&lt;/span&gt;&lt;br style=&quot;color: rgb(0 , 0 , 0) ; font-family: &amp;#34;helvetica&amp;#34; ; font-size: 12px ; font-style: normal ; font-weight: 400 ; letter-spacing: normal ; text-align: center ; text-indent: 0px ; text-transform: none ; word-spacing: 0px ; background-color: rgb(248 , 249 , 250)&quot;&gt;&lt;span style=&quot;color: rgb(0 , 0 , 0) ; font-family: &amp;#34;helvetica&amp;#34; ; font-size: 12px ; font-style: normal ; font-weight: 400 ; letter-spacing: normal ; text-align: center ; text-indent: 0px ; text-transform: none ; word-spacing: 0px ; background-color: rgb(248 , 249 , 250) ; float: none ; display: inline&quot;&gt;uv top3&lt;/span&gt;&lt;br style=&quot;color: rgb(0 , 0 , 0) ; font-family: &amp;#34;helvetica&amp;#34; ; font-size: 12px ; font-style: normal ; font-weight: 400 ; letter-spacing: normal ; text-align: center ; text-indent: 0px ; text-transform: none ; word-spacing: 0px ; background-color: rgb(248 , 249 , 250)&quot;&gt;&lt;span style=&quot;color: rgb(0 , 0 , 0) ; font-family: &amp;#34;helvetica&amp;#34; ; font-size: 12px ; font-style: normal ; font-weight: 400 ; letter-spacing: normal ; text-align: center ; text-indent: 0px ; text-transform: none ; word-spacing: 0px ; background-color: rgb(248 , 249 , 250) ; float: none ; display: inline&quot;&gt;品类&lt;/span&gt;" style="whiteSpace=wrap;html=1;aspect=fixed;" parent="1" vertex="1">
          <mxGeometry x="214" y="305" width="80" height="80" as="geometry" />
        </mxCell>
        <mxCell id="TyoJxL2L62WcN0cPFRU_-33" value="${brand_id}:search_brand_filter ----&amp;gt;&amp;nbsp; &amp;nbsp;cat_name1,cat_name2,cat_name3" style="shape=cylinder;whiteSpace=wrap;html=1;boundedLbl=1;backgroundOutline=1;" parent="1" vertex="1">
          <mxGeometry x="370" y="317.5" width="450" height="55" as="geometry" />
        </mxCell>
        <mxCell id="TyoJxL2L62WcN0cPFRU_-34" value="redis" style="text;html=1;align=center;verticalAlign=middle;resizable=0;points=[];autosize=1;" parent="1" vertex="1">
          <mxGeometry x="588" y="317.5" width="40" height="20" as="geometry" />
        </mxCell>
        <mxCell id="TyoJxL2L62WcN0cPFRU_-37" value="" style="shape=curlyBracket;whiteSpace=wrap;html=1;rounded=1;rotation=-90;" parent="1" vertex="1">
          <mxGeometry x="450" y="165" width="31" height="490" as="geometry" />
        </mxCell>
        <mxCell id="TyoJxL2L62WcN0cPFRU_-38" value="大数据hera 调度完成，任务名称：search_brand_top3_cate_month_p_day" style="text;html=1;align=center;verticalAlign=middle;resizable=0;points=[];autosize=1;" parent="1" vertex="1">
          <mxGeometry x="280" y="440" width="410" height="20" as="geometry" />
        </mxCell>
        <mxCell id="TyoJxL2L62WcN0cPFRU_-48" value="" style="edgeStyle=orthogonalEdgeStyle;rounded=0;orthogonalLoop=1;jettySize=auto;html=1;" parent="1" source="TyoJxL2L62WcN0cPFRU_-39" edge="1">
          <mxGeometry relative="1" as="geometry">
            <mxPoint x="230" y="615" as="targetPoint" />
          </mxGeometry>
        </mxCell>
        <mxCell id="TyoJxL2L62WcN0cPFRU_-39" value="非品牌词的" style="text;html=1;align=center;verticalAlign=middle;resizable=0;points=[];autosize=1;" parent="1" vertex="1">
          <mxGeometry x="10" y="605" width="80" height="20" as="geometry" />
        </mxCell>
        <mxCell id="TyoJxL2L62WcN0cPFRU_-14" value="&amp;nbsp;.3.&amp;nbsp; 历史搜索词的 （数量&amp;nbsp; 300k 左右）" style="text;html=1;align=center;verticalAlign=middle;resizable=0;points=[];autosize=1;" parent="1" vertex="1">
          <mxGeometry x="232" y="172" width="220" height="20" as="geometry" />
        </mxCell>
        <mxCell id="TyoJxL2L62WcN0cPFRU_-58" value="" style="edgeStyle=orthogonalEdgeStyle;rounded=0;orthogonalLoop=1;jettySize=auto;html=1;" parent="1" edge="1">
          <mxGeometry relative="1" as="geometry">
            <mxPoint x="300" y="684" as="sourcePoint" />
            <mxPoint x="300" y="764" as="targetPoint" />
            <Array as="points">
              <mxPoint x="300" y="750" />
              <mxPoint x="300" y="750" />
            </Array>
          </mxGeometry>
        </mxCell>
        <mxCell id="TyoJxL2L62WcN0cPFRU_-43" value="过去15天内&lt;br&gt;复杂筛选项pv &amp;gt;1&lt;br&gt;搜索词&lt;br&gt;的&lt;br&gt;品牌 及 复杂筛选属性对&amp;nbsp;" style="whiteSpace=wrap;html=1;aspect=fixed;" parent="1" vertex="1">
          <mxGeometry x="240" y="560" width="120" height="120" as="geometry" />
        </mxCell>
        <mxCell id="TyoJxL2L62WcN0cPFRU_-46" value="&lt;div style=&quot;color: rgb(212 , 212 , 212) ; background-color: rgb(30 , 30 , 30) ; font-family: &amp;#34;consolas&amp;#34; , &amp;#34;courier new&amp;#34; , monospace ; font-size: 14px ; line-height: 19px&quot;&gt;secoo_app.app_search_keyword_filter_for_suggest_p_day_incr&lt;/div&gt;" style="text;html=1;align=center;verticalAlign=middle;resizable=0;points=[];autosize=1;" parent="1" vertex="1">
          <mxGeometry x="70" y="520" width="460" height="20" as="geometry" />
        </mxCell>
        <mxCell id="TyoJxL2L62WcN0cPFRU_-55" value="" style="edgeStyle=orthogonalEdgeStyle;rounded=0;orthogonalLoop=1;jettySize=auto;html=1;" parent="1" source="TyoJxL2L62WcN0cPFRU_-52" target="TyoJxL2L62WcN0cPFRU_-53" edge="1">
          <mxGeometry relative="1" as="geometry" />
        </mxCell>
        <mxCell id="TyoJxL2L62WcN0cPFRU_-52" value="&lt;span&gt;品牌，直接获取&lt;/span&gt;&lt;br&gt;&lt;span&gt;复杂筛选项词，过滤无结果&lt;/span&gt;&lt;br&gt;&lt;span&gt;简单过滤属性值&lt;/span&gt;" style="rounded=0;whiteSpace=wrap;html=1;" parent="1" vertex="1">
          <mxGeometry x="200" y="770" width="190" height="70" as="geometry" />
        </mxCell>
        <mxCell id="TyoJxL2L62WcN0cPFRU_-53" value="${search_word}:search_other_filters----&amp;gt;&amp;nbsp; &amp;nbsp;brand_name1,brand_name2,brand_name3,filter1,filter2,filter3" style="shape=cylinder;whiteSpace=wrap;html=1;boundedLbl=1;backgroundOutline=1;" parent="1" vertex="1">
          <mxGeometry x="5" y="920" width="580" height="55" as="geometry" />
        </mxCell>
        <mxCell id="TyoJxL2L62WcN0cPFRU_-54" value="redis" style="text;html=1;align=center;verticalAlign=middle;resizable=0;points=[];autosize=1;" parent="1" vertex="1">
          <mxGeometry x="275" y="920" width="40" height="20" as="geometry" />
        </mxCell>
        <mxCell id="TyoJxL2L62WcN0cPFRU_-60" value="" style="shape=curlyBracket;whiteSpace=wrap;html=1;rounded=1;direction=west;" parent="1" vertex="1">
          <mxGeometry x="608" y="770" width="20" height="190" as="geometry" />
        </mxCell>
        <mxCell id="TyoJxL2L62WcN0cPFRU_-61" value="client1 定时任务&lt;br&gt;/data/hdfs/suggest_tag/start.sh" style="text;html=1;align=center;verticalAlign=middle;resizable=0;points=[];autosize=1;" parent="1" vertex="1">
          <mxGeometry x="620" y="850" width="180" height="30" as="geometry" />
        </mxCell>
        <mxCell id="iZUuwFrf2KAGskIMmz3N-3" value="历史搜索词聚合" style="text;html=1;align=center;verticalAlign=middle;resizable=0;points=[];autosize=1;" vertex="1" parent="1">
          <mxGeometry x="30" y="1210" width="100" height="20" as="geometry" />
        </mxCell>
        <mxCell id="iZUuwFrf2KAGskIMmz3N-4" value="搜索词&lt;br&gt;近40个商品信息&lt;br&gt;ctr 排行" style="whiteSpace=wrap;html=1;aspect=fixed;" vertex="1" parent="1">
          <mxGeometry x="585" y="1332.5" width="95" height="95" as="geometry" />
        </mxCell>
        <mxCell id="iZUuwFrf2KAGskIMmz3N-5" value="secoo_fact.fact_search_suggest_product_info;" style="text;html=1;align=center;verticalAlign=middle;resizable=0;points=[];autosize=1;" vertex="1" parent="1">
          <mxGeometry x="520" y="1300" width="260" height="20" as="geometry" />
        </mxCell>
        <mxCell id="iZUuwFrf2KAGskIMmz3N-6" value="secoo_app.app_search_keyword_top40_sku_p_day_incr" style="text;html=1;align=center;verticalAlign=middle;resizable=0;points=[];autosize=1;" vertex="1" parent="1">
          <mxGeometry x="30" y="1310" width="320" height="20" as="geometry" />
        </mxCell>
        <mxCell id="iZUuwFrf2KAGskIMmz3N-10" style="edgeStyle=orthogonalEdgeStyle;rounded=0;orthogonalLoop=1;jettySize=auto;html=1;" edge="1" parent="1" source="iZUuwFrf2KAGskIMmz3N-7">
          <mxGeometry relative="1" as="geometry">
            <mxPoint x="580" y="1380" as="targetPoint" />
          </mxGeometry>
        </mxCell>
        <mxCell id="iZUuwFrf2KAGskIMmz3N-7" value="一月内每个搜索词下&lt;br&gt;ctr&amp;nbsp; &amp;nbsp;top 40 的sku id&amp;nbsp;" style="rounded=0;whiteSpace=wrap;html=1;" vertex="1" parent="1">
          <mxGeometry x="102" y="1350" width="120" height="60" as="geometry" />
        </mxCell>
        <mxCell id="iZUuwFrf2KAGskIMmz3N-11" value="关联商品信息" style="text;html=1;align=center;verticalAlign=middle;resizable=0;points=[];autosize=1;" vertex="1" parent="1">
          <mxGeometry x="324" y="1352" width="90" height="20" as="geometry" />
        </mxCell>
        <mxCell id="iZUuwFrf2KAGskIMmz3N-12" value="" style="endArrow=classic;html=1;exitX=0.5;exitY=1;exitDx=0;exitDy=0;" edge="1" parent="1" source="iZUuwFrf2KAGskIMmz3N-4">
          <mxGeometry width="50" height="50" relative="1" as="geometry">
            <mxPoint x="632" y="1450" as="sourcePoint" />
            <mxPoint x="632" y="1563" as="targetPoint" />
            <Array as="points">
              <mxPoint x="632" y="1512.5" />
            </Array>
          </mxGeometry>
        </mxCell>
        <mxCell id="iZUuwFrf2KAGskIMmz3N-13" value="搜索词&lt;br&gt;商品聚合出的属性词" style="rounded=0;whiteSpace=wrap;html=1;" vertex="1" parent="1">
          <mxGeometry x="572.5" y="1570" width="120" height="60" as="geometry" />
        </mxCell>
        <mxCell id="iZUuwFrf2KAGskIMmz3N-14" value="属性聚合&lt;br&gt;1. 根据商品类目过滤属性及属性值&lt;br&gt;2. 过滤部分数字，英文，单位，“其他”等无意义词&lt;br&gt;3..根据历史无结果统计过滤部分词" style="text;html=1;align=center;verticalAlign=middle;resizable=0;points=[];autosize=1;" vertex="1" parent="1">
          <mxGeometry x="370" y="1450" width="280" height="60" as="geometry" />
        </mxCell>
        <mxCell id="iZUuwFrf2KAGskIMmz3N-15" value="tmp.t_search_suggest_word_prepare" style="text;html=1;align=center;verticalAlign=middle;resizable=0;points=[];autosize=1;" vertex="1" parent="1">
          <mxGeometry x="640" y="1540" width="210" height="20" as="geometry" />
        </mxCell>
        <mxCell id="iZUuwFrf2KAGskIMmz3N-18" value="" style="endArrow=classic;html=1;entryX=0.986;entryY=0.517;entryDx=0;entryDy=0;entryPerimeter=0;" edge="1" parent="1" source="iZUuwFrf2KAGskIMmz3N-13" target="iZUuwFrf2KAGskIMmz3N-19">
          <mxGeometry width="50" height="50" relative="1" as="geometry">
            <mxPoint x="414" y="1650" as="sourcePoint" />
            <mxPoint x="240" y="1601" as="targetPoint" />
          </mxGeometry>
        </mxCell>
        <mxCell id="iZUuwFrf2KAGskIMmz3N-24" value="" style="edgeStyle=orthogonalEdgeStyle;rounded=0;orthogonalLoop=1;jettySize=auto;html=1;" edge="1" parent="1" source="iZUuwFrf2KAGskIMmz3N-19" target="iZUuwFrf2KAGskIMmz3N-22">
          <mxGeometry relative="1" as="geometry" />
        </mxCell>
        <mxCell id="iZUuwFrf2KAGskIMmz3N-19" value="一年内历史搜索词 及年，月，周pv,点击，加购，聚合属性" style="rounded=0;whiteSpace=wrap;html=1;" vertex="1" parent="1">
          <mxGeometry x="80" y="1570" width="152" height="60" as="geometry" />
        </mxCell>
        <mxCell id="iZUuwFrf2KAGskIMmz3N-20" value="关联要写入es 中的历史搜索词信息" style="text;html=1;align=center;verticalAlign=middle;resizable=0;points=[];autosize=1;" vertex="1" parent="1">
          <mxGeometry x="300" y="1610" width="200" height="20" as="geometry" />
        </mxCell>
        <mxCell id="iZUuwFrf2KAGskIMmz3N-21" value="secoo_app.app_search_keyword_year_week_p_day" style="text;html=1;align=center;verticalAlign=middle;resizable=0;points=[];autosize=1;" vertex="1" parent="1">
          <mxGeometry x="10" y="1540" width="300" height="20" as="geometry" />
        </mxCell>
        <mxCell id="iZUuwFrf2KAGskIMmz3N-22" value="{keyword:耐克男鞋，suggestTags: }" style="shape=cylinder;whiteSpace=wrap;html=1;boundedLbl=1;backgroundOutline=1;" vertex="1" parent="1">
          <mxGeometry x="6" y="1690" width="300" height="50" as="geometry" />
        </mxCell>
        <mxCell id="iZUuwFrf2KAGskIMmz3N-25" value="elastic search" style="text;html=1;align=center;verticalAlign=middle;resizable=0;points=[];autosize=1;" vertex="1" parent="1">
          <mxGeometry x="115" y="1690" width="90" height="20" as="geometry" />
        </mxCell>
        <mxCell id="iZUuwFrf2KAGskIMmz3N-27" value="最后一步是go 离线任务，前面的 在 hera 中运行" style="text;html=1;align=center;verticalAlign=middle;resizable=0;points=[];autosize=1;" vertex="1" parent="1">
          <mxGeometry x="265" y="1780" width="270" height="20" as="geometry" />
        </mxCell>
        <mxCell id="iZUuwFrf2KAGskIMmz3N-28" value="在线流程：" style="text;html=1;align=center;verticalAlign=middle;resizable=0;points=[];autosize=1;" vertex="1" parent="1">
          <mxGeometry x="30" y="1850" width="80" height="20" as="geometry" />
        </mxCell>
        <mxCell id="iZUuwFrf2KAGskIMmz3N-32" value="" style="edgeStyle=orthogonalEdgeStyle;rounded=0;orthogonalLoop=1;jettySize=auto;html=1;" edge="1" parent="1">
          <mxGeometry relative="1" as="geometry">
            <mxPoint x="161.5" y="1922" as="sourcePoint" />
            <mxPoint x="161.5" y="2002" as="targetPoint" />
          </mxGeometry>
        </mxCell>
        <mxCell id="iZUuwFrf2KAGskIMmz3N-30" value="es 的一个提示词" style="rounded=1;whiteSpace=wrap;html=1;" vertex="1" parent="1">
          <mxGeometry x="100" y="1892" width="120" height="40" as="geometry" />
        </mxCell>
        <mxCell id="iZUuwFrf2KAGskIMmz3N-35" value="" style="edgeStyle=orthogonalEdgeStyle;rounded=0;orthogonalLoop=1;jettySize=auto;html=1;" edge="1" parent="1" source="iZUuwFrf2KAGskIMmz3N-33">
          <mxGeometry relative="1" as="geometry">
            <mxPoint x="282" y="2042" as="targetPoint" />
          </mxGeometry>
        </mxCell>
        <mxCell id="iZUuwFrf2KAGskIMmz3N-40" value="" style="edgeStyle=orthogonalEdgeStyle;rounded=0;orthogonalLoop=1;jettySize=auto;html=1;" edge="1" parent="1" source="iZUuwFrf2KAGskIMmz3N-33" target="iZUuwFrf2KAGskIMmz3N-39">
          <mxGeometry relative="1" as="geometry" />
        </mxCell>
        <mxCell id="iZUuwFrf2KAGskIMmz3N-33" value="是品牌词" style="rhombus;whiteSpace=wrap;html=1;" vertex="1" parent="1">
          <mxGeometry x="122" y="2002" width="80" height="80" as="geometry" />
        </mxCell>
        <mxCell id="iZUuwFrf2KAGskIMmz3N-36" value="否" style="text;html=1;align=center;verticalAlign=middle;resizable=0;points=[];autosize=1;" vertex="1" parent="1">
          <mxGeometry x="233" y="2024" width="30" height="20" as="geometry" />
        </mxCell>
        <mxCell id="iZUuwFrf2KAGskIMmz3N-44" style="edgeStyle=orthogonalEdgeStyle;rounded=0;orthogonalLoop=1;jettySize=auto;html=1;" edge="1" parent="1" source="iZUuwFrf2KAGskIMmz3N-38">
          <mxGeometry relative="1" as="geometry">
            <mxPoint x="380" y="2202" as="targetPoint" />
          </mxGeometry>
        </mxCell>
        <mxCell id="iZUuwFrf2KAGskIMmz3N-38" value="从 redis 中拿品牌或筛选项" style="rounded=0;whiteSpace=wrap;html=1;" vertex="1" parent="1">
          <mxGeometry x="280" y="2012" width="80" height="60" as="geometry" />
        </mxCell>
        <mxCell id="iZUuwFrf2KAGskIMmz3N-43" style="edgeStyle=orthogonalEdgeStyle;rounded=0;orthogonalLoop=1;jettySize=auto;html=1;entryX=0.5;entryY=0;entryDx=0;entryDy=0;" edge="1" parent="1" source="iZUuwFrf2KAGskIMmz3N-39" target="iZUuwFrf2KAGskIMmz3N-41">
          <mxGeometry relative="1" as="geometry" />
        </mxCell>
        <mxCell id="iZUuwFrf2KAGskIMmz3N-39" value="从redis 拿品类词" style="rounded=0;whiteSpace=wrap;html=1;" vertex="1" parent="1">
          <mxGeometry x="102" y="2112" width="120" height="60" as="geometry" />
        </mxCell>
        <mxCell id="iZUuwFrf2KAGskIMmz3N-45" style="edgeStyle=orthogonalEdgeStyle;rounded=0;orthogonalLoop=1;jettySize=auto;html=1;" edge="1" parent="1" source="iZUuwFrf2KAGskIMmz3N-41">
          <mxGeometry relative="1" as="geometry">
            <mxPoint x="490" y="2222" as="targetPoint" />
          </mxGeometry>
        </mxCell>
        <mxCell id="iZUuwFrf2KAGskIMmz3N-41" value="补充上 es 里的标签词" style="rounded=0;whiteSpace=wrap;html=1;" vertex="1" parent="1">
          <mxGeometry x="322" y="2202" width="120" height="40" as="geometry" />
        </mxCell>
        <mxCell id="iZUuwFrf2KAGskIMmz3N-42" value="是" style="text;html=1;align=center;verticalAlign=middle;resizable=0;points=[];autosize=1;" vertex="1" parent="1">
          <mxGeometry x="120" y="2082" width="30" height="20" as="geometry" />
        </mxCell>
        <mxCell id="iZUuwFrf2KAGskIMmz3N-48" value="" style="edgeStyle=orthogonalEdgeStyle;rounded=0;orthogonalLoop=1;jettySize=auto;html=1;" edge="1" parent="1" source="iZUuwFrf2KAGskIMmz3N-46" target="iZUuwFrf2KAGskIMmz3N-47">
          <mxGeometry relative="1" as="geometry" />
        </mxCell>
        <mxCell id="iZUuwFrf2KAGskIMmz3N-46" value="取前3个" style="rounded=0;whiteSpace=wrap;html=1;" vertex="1" parent="1">
          <mxGeometry x="490" y="2201" width="102" height="42" as="geometry" />
        </mxCell>
        <mxCell id="iZUuwFrf2KAGskIMmz3N-47" value="返回前端" style="rounded=1;whiteSpace=wrap;html=1;" vertex="1" parent="1">
          <mxGeometry x="486" y="2290" width="110" height="40" as="geometry" />
        </mxCell>
      </root>
    </mxGraphModel>
  </diagram>
</mxfile>
